<svg xmlns="http://www.w3.org/2000/svg" viewBox="0 0 512 512" width="512" height="512"><defs>
<linearGradient id="sun" x1="0" y1="0" x2="0" y2="1"><stop offset="0" stop-color="#ffe29a"/><stop offset="1" stop-color="#f5b94f"/></linearGradient>
<linearGradient id="moon" x1="0" y1="0" x2="1" y2="1"><stop offset="0" stop-color="#f4f8ff"/><stop offset="1" stop-color="#b9d3f0"/></linearGradient>
<linearGradient id="cl" x1="0" y1="0" x2="0" y2="1"><stop offset="0" stop-color="#ffffff"/><stop offset="1" stop-color="#a9cde9"/></linearGradient>
<linearGradient id="dk" x1="0" y1="0" x2="0" y2="1"><stop offset="0" stop-color="#b7c9db"/><stop offset="1" stop-color="#8aa3bb"/></linearGradient>
<radialGradient id="bg" cx=".5" cy=".18" r=".9"><stop offset="0" stop-color="#fafdff"/><stop offset=".5" stop-color="#dff1ff"/><stop offset="1" stop-color="#b9dcf4"/></radialGradient>
</defs><clipPath id="c"><circle cx="256" cy="256" r="244"/></clipPath><g transform="translate(256 190) scale(1.3)" fill="url(#cl)" stroke="#7fb0d6" stroke-width="3.5" stroke-linejoin="round" paint-order="stroke"><circle cx="-50" cy="10" r="38"/><circle cx="0" cy="-12" r="52"/><circle cx="52" cy="8" r="40"/><rect x="-88" y="10" width="180" height="38" rx="19"/></g><line x1="180" y1="290" x2="170" y2="360" stroke="#4b96c5" stroke-width="7" stroke-linecap="round"/><line x1="230" y1="290" x2="220" y2="360" stroke="#4b96c5" stroke-width="7" stroke-linecap="round"/><line x1="280" y1="290" x2="270" y2="360" stroke="#4b96c5" stroke-width="7" stroke-linecap="round"/><line x1="330" y1="290" x2="320" y2="360" stroke="#4b96c5" stroke-width="7" stroke-linecap="round"/><line x1="205" y1="370" x2="195" y2="425" stroke="#4b96c5" stroke-width="7" stroke-linecap="round"/><line x1="255" y1="370" x2="245" y2="425" stroke="#4b96c5" stroke-width="7" stroke-linecap="round"/><line x1="305" y1="370" x2="295" y2="425" stroke="#4b96c5" stroke-width="7" stroke-linecap="round"/><line x1="355" y1="370" x2="345" y2="425" stroke="#4b96c5" stroke-width="7" stroke-linecap="round"/></svg>