<svg xmlns="http://www.w3.org/2000/svg" viewBox="0 0 512 512" width="512" height="512"><defs>
<linearGradient id="sun" x1="0" y1="0" x2="0" y2="1"><stop offset="0" stop-color="#ffe29a"/><stop offset="1" stop-color="#f5b94f"/></linearGradient>
<linearGradient id="moon" x1="0" y1="0" x2="1" y2="1"><stop offset="0" stop-color="#f4f8ff"/><stop offset="1" stop-color="#b9d3f0"/></linearGradient>
<linearGradient id="cl" x1="0" y1="0" x2="0" y2="1"><stop offset="0" stop-color="#ffffff"/><stop offset="1" stop-color="#a9cde9"/></linearGradient>
<linearGradient id="dk" x1="0" y1="0" x2="0" y2="1"><stop offset="0" stop-color="#b7c9db"/><stop offset="1" stop-color="#8aa3bb"/></linearGradient>
<radialGradient id="bg" cx=".5" cy=".18" r=".9"><stop offset="0" stop-color="#fafdff"/><stop offset=".5" stop-color="#dff1ff"/><stop offset="1" stop-color="#b9dcf4"/></radialGradient>
</defs><clipPath id="c"><circle cx="256" cy="256" r="244"/></clipPath><circle cx="256" cy="256" r="244" fill="url(#bg)" stroke="#fff" stroke-width="4"/><g clip-path="url(#c)"><path d="M90 380 A166 166 0 0 1 422 380" fill="none" stroke="#ef6a6a" stroke-width="14" opacity=".85"/><path d="M104 380 A152 152 0 0 1 408 380" fill="none" stroke="#f5a05a" stroke-width="14" opacity=".85"/><path d="M118 380 A138 138 0 0 1 394 380" fill="none" stroke="#f5d25a" stroke-width="14" opacity=".85"/><path d="M132 380 A124 124 0 0 1 380 380" fill="none" stroke="#7cc48a" stroke-width="14" opacity=".85"/><path d="M146 380 A110 110 0 0 1 366 380" fill="none" stroke="#5aa9e6" stroke-width="14" opacity=".85"/><path d="M160 380 A96 96 0 0 1 352 380" fill="none" stroke="#7b86d9" stroke-width="14" opacity=".85"/><g transform="translate(120 390) scale(0.7)" fill="url(#cl)" stroke="#7fb0d6" stroke-width="3.5" stroke-linejoin="round" paint-order="stroke"><circle cx="-50" cy="10" r="38"/><circle cx="0" cy="-12" r="52"/><circle cx="52" cy="8" r="40"/><rect x="-88" y="10" width="180" height="38" rx="19"/></g><g transform="translate(395 390) scale(0.7)" fill="url(#cl)" stroke="#7fb0d6" stroke-width="3.5" stroke-linejoin="round" paint-order="stroke"><circle cx="-50" cy="10" r="38"/><circle cx="0" cy="-12" r="52"/><circle cx="52" cy="8" r="40"/><rect x="-88" y="10" width="180" height="38" rx="19"/></g></g></svg>